<mxfile host="app.diagrams.net" modified="2023-09-02T11:00:00.000Z" agent="Mozilla/5.0 (Windows NT 10.0; Win64; x64) AppleWebKit/537.36 (KHTML, like Gecko) Chrome/135.0.0.0 Safari/537.36" etag="123456789" version="21.7.2" type="device">
  <diagram name="MCP Architecture" id="ZI2ADXKwUIfG3KBBQAa_">
    <mxGraphModel dx="14514" dy="11667" grid="1" gridSize="10" guides="1" tooltips="1" connect="1" arrows="1" fold="1" page="1" pageScale="1" pageWidth="827" pageHeight="1169" math="0" shadow="0">
      <root>
        <mxCell id="0" />
        <mxCell id="1" parent="0" />
        <mxCell id="main-canvas" value="" style="whiteSpace=wrap;html=1;aspect=fixed;" vertex="1" parent="1">
          <mxGeometry x="-1150" y="-2680" width="4300" height="4300" as="geometry" />
        </mxCell>
        
        <!-- Title -->
        <mxCell id="diagram-title" value="STATE MACHINE MCP DRIVER - ARCHITECTURE DIAGRAM" style="text;html=1;strokeColor=none;fillColor=none;align=center;verticalAlign=middle;whiteSpace=wrap;rounded=0;fontSize=24;fontStyle=1;" vertex="1" parent="1">
          <mxGeometry x="500" y="-2600" width="1000" height="40" as="geometry" />
        </mxCell>
        
        <mxCell id="diagram-subtitle" value="Comprehensive visualization of the state-machine-mcp-driver system architecture" style="text;html=1;strokeColor=none;fillColor=none;align=center;verticalAlign=middle;whiteSpace=wrap;rounded=0;fontSize=16;" vertex="1" parent="1">
          <mxGeometry x="500" y="-2550" width="1000" height="30" as="geometry" />
        </mxCell>
        
        <!-- Socket.IO Server Group -->
        <mxCell id="socket-io-group" value="" style="group" vertex="1" connectable="0" parent="1">
          <mxGeometry x="760" y="-2260" width="620" height="500" as="geometry" />
        </mxCell>
        
        <mxCell id="socket-io-container" value="" style="rounded=1;whiteSpace=wrap;html=1;fillColor=#E1F5FE;strokeColor=#01579B;strokeWidth=3;dashed=1;" vertex="1" parent="socket-io-group">
          <mxGeometry width="620" height="500" as="geometry" />
        </mxCell>
        
        <mxCell id="socket-io-title" value="Socket.IO Server&#xa;(AlephScript Rooms)" style="text;html=1;strokeColor=none;fillColor=none;align=center;verticalAlign=middle;whiteSpace=wrap;rounded=0;fontSize=16;fontStyle=1;" vertex="1" parent="socket-io-group">
          <mxGeometry x="120" y="15" width="380" height="30" as="geometry" />
        </mxCell>
        
        <mxCell id="socket-room-devops" value="room: devops" style="rounded=1;whiteSpace=wrap;html=1;fontSize=11;fillColor=#f8f9fa;strokeColor=#01579B;dashed=1;" vertex="1" parent="socket-io-group">
          <mxGeometry x="30" y="70" width="180" height="90" as="geometry" />
        </mxCell>
        
        <mxCell id="socket-room-statemachine" value="room: statemachine" style="rounded=1;whiteSpace=wrap;html=1;fontSize=11;fillColor=#f8f9fa;strokeColor=#01579B;dashed=1;" vertex="1" parent="socket-io-group">
          <mxGeometry x="220" y="70" width="180" height="90" as="geometry" />
        </mxCell>
        
        <mxCell id="socket-room-wikibrowser" value="room: wikibrowser" style="rounded=1;whiteSpace=wrap;html=1;fontSize=11;fillColor=#f8f9fa;strokeColor=#01579B;dashed=1;" vertex="1" parent="socket-io-group">
          <mxGeometry x="410" y="70" width="180" height="90" as="geometry" />
        </mxCell>
        
        <mxCell id="socket-room-console" value="room: ui-console" style="rounded=1;whiteSpace=wrap;html=1;fontSize=11;fillColor=#f8f9fa;strokeColor=#01579B;dashed=1;" vertex="1" parent="socket-io-group">
          <mxGeometry x="30" y="180" width="180" height="90" as="geometry" />
        </mxCell>
        
        <mxCell id="socket-room-web" value="room: ui-web" style="rounded=1;whiteSpace=wrap;html=1;fontSize=11;fillColor=#f8f9fa;strokeColor=#01579B;dashed=1;" vertex="1" parent="socket-io-group">
          <mxGeometry x="220" y="180" width="180" height="90" as="geometry" />
        </mxCell>
        
        <mxCell id="socket-room-copilot" value="room: copilot" style="rounded=1;whiteSpace=wrap;html=1;fontSize=11;fillColor=#f8f9fa;strokeColor=#01579B;dashed=1;" vertex="1" parent="socket-io-group">
          <mxGeometry x="410" y="180" width="180" height="90" as="geometry" />
        </mxCell>
        
        <mxCell id="socket-room-broadcast" value="room: broadcast" style="rounded=1;whiteSpace=wrap;html=1;fontSize=11;fillColor=#f8f9fa;strokeColor=#01579B;dashed=1;" vertex="1" parent="socket-io-group">
          <mxGeometry x="220" y="300" width="180" height="80" as="geometry" />
        </mxCell>
        
        <!-- AlephScript Clients Group -->
        <mxCell id="alephscript-clients-group" value="" style="group" vertex="1" connectable="0" parent="1">
          <mxGeometry x="0" y="-2260" width="680" height="320" as="geometry" />
        </mxCell>
        
        <mxCell id="alephscript-clients-container" value="" style="rounded=1;whiteSpace=wrap;html=1;fillColor=#dae8fc;strokeColor=#6c8ebf;strokeWidth=3;dashed=1;" vertex="1" parent="alephscript-clients-group">
          <mxGeometry width="680" height="320" as="geometry" />
        </mxCell>
        
        <mxCell id="alephscript-clients-title" value="AlephScript Clients (Socket.IO)" style="text;html=1;strokeColor=none;fillColor=none;align=center;verticalAlign=middle;whiteSpace=wrap;rounded=0;fontSize=16;fontStyle=1;" vertex="1" parent="alephscript-clients-group">
          <mxGeometry x="180" y="20" width="320" height="30" as="geometry" />
        </mxCell>
        
        <mxCell id="alephscript-proserpina" value="ProserpinaBot&#xa;(DevOps Operations)" style="rounded=1;whiteSpace=wrap;html=1;fontSize=12;fillColor=#f8f9fa;strokeColor=#6c8ebf;" vertex="1" parent="alephscript-clients-group">
          <mxGeometry x="40" y="70" width="160" height="80" as="geometry" />
        </mxCell>
        
        <mxCell id="alephscript-orfeo" value="OrfeoBot&#xa;(Music & Audio)" style="rounded=1;whiteSpace=wrap;html=1;fontSize=12;fillColor=#f8f9fa;strokeColor=#6c8ebf;" vertex="1" parent="alephscript-clients-group">
          <mxGeometry x="240" y="70" width="160" height="80" as="geometry" />
        </mxCell>
        
        <mxCell id="alephscript-euridice" value="EuridiceBot&#xa;(Data & Analytics)" style="rounded=1;whiteSpace=wrap;html=1;fontSize=12;fillColor=#f8f9fa;strokeColor=#6c8ebf;" vertex="1" parent="alephscript-clients-group">
          <mxGeometry x="440" y="70" width="160" height="80" as="geometry" />
        </mxCell>
        
        <mxCell id="alephscript-unity" value="Unity AlephScript&#xa;(Game Integration)" style="rounded=1;whiteSpace=wrap;html=1;fontSize=12;fillColor=#f8f9fa;strokeColor=#6c8ebf;" vertex="1" parent="alephscript-clients-group">
          <mxGeometry x="240" y="180" width="160" height="80" as="geometry" />
        </mxCell>
        
        <!-- Channel Bots Group -->
        <mxCell id="channel-bots-group" value="" style="group" vertex="1" connectable="0" parent="1">
          <mxGeometry x="1460" y="-2260" width="620" height="320" as="geometry" />
        </mxCell>
        
        <mxCell id="channel-bots-container" value="" style="rounded=1;whiteSpace=wrap;html=1;fillColor=#e1d5e7;strokeColor=#9673a6;strokeWidth=3;dashed=1;" vertex="1" parent="channel-bots-group">
          <mxGeometry width="620" height="320" as="geometry" />
        </mxCell>
        
        <mxCell id="channel-bots-title" value="RxJS Channel Bots" style="text;html=1;strokeColor=none;fillColor=none;align=center;verticalAlign=middle;whiteSpace=wrap;rounded=0;fontSize=16;fontStyle=1;" vertex="1" parent="channel-bots-group">
          <mxGeometry x="180" y="20" width="260" height="30" as="geometry" />
        </mxCell>
        
        <mxCell id="bot-apolo" value="ApoloBot&#xa;(Strategic Agent)" style="rounded=1;whiteSpace=wrap;html=1;fontSize=12;fillColor=#f8f9fa;strokeColor=#9673a6;" vertex="1" parent="channel-bots-group">
          <mxGeometry x="40" y="70" width="160" height="80" as="geometry" />
        </mxCell>
        
        <mxCell id="bot-dionisio" value="DionisioBot&#xa;(Creative Agent)" style="rounded=1;whiteSpace=wrap;html=1;fontSize=12;fillColor=#f8f9fa;strokeColor=#9673a6;" vertex="1" parent="channel-bots-group">
          <mxGeometry x="240" y="70" width="160" height="80" as="geometry" />
        </mxCell>
        
        <mxCell id="bot-justice" value="JusticeBot&#xa;(Regulatory Agent)" style="rounded=1;whiteSpace=wrap;html=1;fontSize=12;fillColor=#f8f9fa;strokeColor=#9673a6;" vertex="1" parent="channel-bots-group">
          <mxGeometry x="40" y="180" width="160" height="80" as="geometry" />
        </mxCell>
        
        <mxCell id="bot-user-simulator" value="UserSimulator&#xa;(Testing Agent)" style="rounded=1;whiteSpace=wrap;html=1;fontSize=12;fillColor=#f8f9fa;strokeColor=#9673a6;" vertex="1" parent="channel-bots-group">
          <mxGeometry x="240" y="180" width="160" height="80" as="geometry" />
        </mxCell>
        
        <!-- MCPLauncherServer -->
        <mxCell id="launcher-server-group" value="" style="group" vertex="1" connectable="0" parent="1">
          <mxGeometry x="500" y="-1800" width="1000" height="500" as="geometry" />
        </mxCell>
        
        <mxCell id="launcher-server-container" value="" style="rounded=1;whiteSpace=wrap;html=1;fillColor=#fff2cc;strokeColor=#d6b656;strokeWidth=3;" vertex="1" parent="launcher-server-group">
          <mxGeometry width="1000" height="500" as="geometry" />
        </mxCell>
        
        <mxCell id="launcher-server-title" value="MCPLauncherServer.ts&#xa;(Core Central System - Port 3050)" style="text;html=1;strokeColor=none;fillColor=none;align=center;verticalAlign=middle;whiteSpace=wrap;rounded=0;fontSize=20;fontStyle=1;" vertex="1" parent="launcher-server-group">
          <mxGeometry x="180" y="20" width="640" height="50" as="geometry" />
        </mxCell>
        
        <mxCell id="launcher-server-description" value="Main server that manages and spawns other MCP service servers.&#xa;Provides health monitoring, auto-restart, and centralized control." style="text;html=1;strokeColor=none;fillColor=none;align=center;verticalAlign=middle;whiteSpace=wrap;rounded=0;fontSize=14;" vertex="1" parent="launcher-server-group">
          <mxGeometry x="200" y="70" width="600" height="50" as="geometry" />
        </mxCell>
        
        <!-- Orchestrator Group -->
        <mxCell id="orchestrator-group" value="" style="group" vertex="1" connectable="0" parent="1">
          <mxGeometry x="940" y="700" width="830" height="250" as="geometry" />
        </mxCell>
        
        <mxCell id="orchestrator-core" value="Orchestrator&#xa;(RxJS + NodeJS)" style="rounded=1;whiteSpace=wrap;html=1;fontSize=12;fontColor=#000000;strokeColor=#000000;fillColor=#FFFFFF;" vertex="1" parent="orchestrator-group">
          <mxGeometry x="360" y="180" width="140" height="70" as="geometry" />
        </mxCell>
        
        <mxCell id="app-channel" value="App&#xa;(AppMessage)" style="rounded=1;whiteSpace=wrap;html=1;fontSize=11;strokeColor=#2D7600;fillColor=#60a917;fontColor=#ffffff;" vertex="1" parent="orchestrator-group">
          <mxGeometry x="150" y="190" width="120" height="50" as="geometry" />
        </mxCell>
        
        <mxCell id="sys-channel" value="Sys&#xa;(SysMessage)" style="rounded=1;whiteSpace=wrap;html=1;fontSize=10;fontColor=default;strokeColor=#FF6D00;fillColor=#FFE0B2;align=center;verticalAlign=top;spacingLeft=5;spacingTop=5;fontFamily=Helvetica;gradientColor=none;" vertex="1" parent="orchestrator-group">
          <mxGeometry x="370" width="120" height="50" as="geometry" />
        </mxCell>
        
        <mxCell id="ui-channel" value="UI&#xa;(UIMessage)" style="rounded=1;whiteSpace=wrap;html=1;fontSize=11;fontColor=#ffffff;strokeColor=#006EAF;fillColor=#1ba1e2;" vertex="1" parent="orchestrator-group">
          <mxGeometry x="590" y="190" width="120" height="50" as="geometry" />
        </mxCell>
        
        <mxCell id="orchestrator-to-app" style="edgeStyle=orthogonalEdgeStyle;elbow=horizontal;strokeColor=#000000;dashed=1;" edge="1" parent="orchestrator-group" source="orchestrator-core" target="app-channel">
          <mxGeometry relative="1" as="geometry" />
        </mxCell>
        
        <mxCell id="orchestrator-to-sys" style="edgeStyle=orthogonalEdgeStyle;elbow=horizontal;strokeColor=#000000;dashed=1;" edge="1" parent="orchestrator-group" source="orchestrator-core" target="sys-channel">
          <mxGeometry relative="1" as="geometry" />
        </mxCell>
        
        <mxCell id="orchestrator-to-ui" style="edgeStyle=orthogonalEdgeStyle;elbow=horizontal;strokeColor=#000000;dashed=1;" edge="1" parent="orchestrator-group" source="orchestrator-core" target="ui-channel">
          <mxGeometry relative="1" as="geometry" />
        </mxCell>
        
        <!-- DevOpsServer Group -->
        <mxCell id="devops-server-group" value="" style="group" vertex="1" connectable="0" parent="1">
          <mxGeometry x="830" y="830" width="380" height="320" as="geometry" />
        </mxCell>
        
        <mxCell id="devops-server-container" value="" style="rounded=1;whiteSpace=wrap;html=1;fillColor=#E8F5E9;strokeColor=#4CAF50;strokeWidth=3;dashed=1;" vertex="1" parent="devops-server-group">
          <mxGeometry width="380" height="320" as="geometry" />
        </mxCell>
        
        <mxCell id="devops-server-title" value="DevOpsServerImpl&#xa;(Port 3003)" style="text;html=1;strokeColor=none;fillColor=none;align=center;verticalAlign=middle;whiteSpace=wrap;rounded=0;fontSize=16;fontStyle=1;" vertex="1" parent="devops-server-group">
          <mxGeometry x="110" y="15" width="160" height="30" as="geometry" />
        </mxCell>
        
        <mxCell id="devops-server-socket" value="Socket.IO Client&#xa;Plugin (room: devops)" style="rounded=1;whiteSpace=wrap;html=1;fontSize=11;fillColor=#E1F5FE;strokeColor=#01579B;fontStyle=1;" vertex="1" parent="devops-server-group">
          <mxGeometry x="120" y="60" width="140" height="60" as="geometry" />
        </mxCell>
        
        <mxCell id="devops-server-orchestrator" value="Orchestrator&#xa;Client" style="rounded=1;whiteSpace=wrap;html=1;fontSize=11;fillColor=#FFFFFF;strokeColor=#000000;fontStyle=1;" vertex="1" parent="devops-server-group">
          <mxGeometry x="120" y="150" width="140" height="60" as="geometry" />
        </mxCell>
        
        <mxCell id="devops-server-adapter" value="MCP Adapter" style="rounded=1;whiteSpace=wrap;html=1;fontSize=11;fillColor=#F3E5F5;strokeColor=#6A1B9A;fontStyle=1;" vertex="1" parent="devops-server-group">
          <mxGeometry x="120" y="240" width="140" height="60" as="geometry" />
        </mxCell>
        
        <!-- StateMachineServer Group -->
        <mxCell id="statemachine-server-group" value="" style="group" vertex="1" connectable="0" parent="1">
          <mxGeometry x="1300" y="830" width="380" height="320" as="geometry" />
        </mxCell>
        
        <mxCell id="statemachine-server-container" value="" style="rounded=1;whiteSpace=wrap;html=1;fillColor=#ffe6cc;strokeColor=#d79b00;strokeWidth=3;dashed=1;" vertex="1" parent="statemachine-server-group">
          <mxGeometry width="380" height="320" as="geometry" />
        </mxCell>
        
        <mxCell id="statemachine-server-title" value="MCPStateMachineServer&#xa;(Port 3001)" style="text;html=1;strokeColor=none;fillColor=none;align=center;verticalAlign=middle;whiteSpace=wrap;rounded=0;fontSize=16;fontStyle=1;" vertex="1" parent="statemachine-server-group">
          <mxGeometry x="110" y="15" width="160" height="30" as="geometry" />
        </mxCell>
        
        <mxCell id="statemachine-server-socket" value="Socket.IO Client&#xa;Plugin (room: statemachine)" style="rounded=1;whiteSpace=wrap;html=1;fontSize=11;fillColor=#E1F5FE;strokeColor=#01579B;fontStyle=1;" vertex="1" parent="statemachine-server-group">
          <mxGeometry x="120" y="60" width="140" height="60" as="geometry" />
        </mxCell>
        
        <mxCell id="statemachine-server-orchestrator" value="Orchestrator&#xa;Client" style="rounded=1;whiteSpace=wrap;html=1;fontSize=11;fillColor=#FFFFFF;strokeColor=#000000;fontStyle=1;" vertex="1" parent="statemachine-server-group">
          <mxGeometry x="120" y="150" width="140" height="60" as="geometry" />
        </mxCell>
        
        <mxCell id="statemachine-server-adapter" value="MCP Adapter" style="rounded=1;whiteSpace=wrap;html=1;fontSize=11;fillColor=#F3E5F5;strokeColor=#6A1B9A;fontStyle=1;" vertex="1" parent="statemachine-server-group">
          <mxGeometry x="120" y="240" width="140" height="60" as="geometry" />
        </mxCell>
        
        <!-- WikiBrowserServer Group -->
        <mxCell id="wikibrowser-server-group" value="" style="group" vertex="1" connectable="0" parent="1">
          <mxGeometry x="1770" y="830" width="380" height="320" as="geometry" />
        </mxCell>
        
        <mxCell id="wikibrowser-server-container" value="" style="rounded=1;whiteSpace=wrap;html=1;fillColor=#d0cee2;strokeColor=#56517e;strokeWidth=3;dashed=1;" vertex="1" parent="wikibrowser-server-group">
          <mxGeometry width="380" height="320" as="geometry" />
        </mxCell>
        
        <mxCell id="wikibrowser-server-title" value="MCPWikiBrowserServer&#xa;(Port 3002)" style="text;html=1;strokeColor=none;fillColor=none;align=center;verticalAlign=middle;whiteSpace=wrap;rounded=0;fontSize=16;fontStyle=1;" vertex="1" parent="wikibrowser-server-group">
          <mxGeometry x="110" y="15" width="160" height="30" as="geometry" />
        </mxCell>
        
        <mxCell id="wikibrowser-server-socket" value="Socket.IO Client&#xa;Plugin (room: wikibrowser)" style="rounded=1;whiteSpace=wrap;html=1;fontSize=11;fillColor=#E1F5FE;strokeColor=#01579B;fontStyle=1;" vertex="1" parent="wikibrowser-server-group">
          <mxGeometry x="120" y="60" width="140" height="60" as="geometry" />
        </mxCell>
        
        <mxCell id="wikibrowser-server-orchestrator" value="Orchestrator&#xa;Client" style="rounded=1;whiteSpace=wrap;html=1;fontSize=11;fillColor=#FFFFFF;strokeColor=#000000;fontStyle=1;" vertex="1" parent="wikibrowser-server-group">
          <mxGeometry x="120" y="150" width="140" height="60" as="geometry" />
        </mxCell>
        
        <mxCell id="wikibrowser-server-adapter" value="MCP Adapter" style="rounded=1;whiteSpace=wrap;html=1;fontSize=11;fillColor=#F3E5F5;strokeColor=#6A1B9A;fontStyle=1;" vertex="1" parent="wikibrowser-server-group">
          <mxGeometry x="120" y="240" width="140" height="60" as="geometry" />
        </mxCell>
        
        <!-- GamificationUI Group -->
        <mxCell id="gamification-ui-group" value="" style="group" vertex="1" connectable="0" parent="1">
          <mxGeometry x="500" y="1200" width="1000" height="320" as="geometry" />
        </mxCell>
        
        <mxCell id="gamification-ui-container" value="" style="rounded=1;whiteSpace=wrap;html=1;fillColor=#f8cecc;strokeColor=#b85450;strokeWidth=3;" vertex="1" parent="gamification-ui-group">
          <mxGeometry width="1000" height="320" as="geometry" />
        </mxCell>
        
        <mxCell id="gamification-ui-title" value="GamificationUI System" style="text;html=1;strokeColor=none;fillColor=none;align=center;verticalAlign=middle;whiteSpace=wrap;rounded=0;fontSize=18;fontStyle=1;" vertex="1" parent="gamification-ui-group">
          <mxGeometry x="250" y="20" width="500" height="40" as="geometry" />
        </mxCell>
        
        <mxCell id="console-ui-container" value="ConsoleGamificationUI&#xa;(Terminal Interface)" style="rounded=1;whiteSpace=wrap;html=1;fontSize=12;fillColor=#f8cecc;strokeColor=#b85450;" vertex="1" parent="gamification-ui-group">
          <mxGeometry x="100" y="80" width="180" height="80" as="geometry" />
        </mxCell>
        
        <mxCell id="html5-ui-container" value="HTML5GamificationUI&#xa;(Web Interface with SSE)" style="rounded=1;whiteSpace=wrap;html=1;fontSize=12;fillColor=#f8cecc;strokeColor=#b85450;" vertex="1" parent="gamification-ui-group">
          <mxGeometry x="310" y="80" width="180" height="80" as="geometry" />
        </mxCell>
        
        <mxCell id="multi-ui-container" value="MultiUIGameManager&#xa;(UI Coordinator)" style="rounded=1;whiteSpace=wrap;html=1;fontSize=12;fillColor=#f8cecc;strokeColor=#b85450;" vertex="1" parent="gamification-ui-group">
          <mxGeometry x="520" y="80" width="180" height="80" as="geometry" />
        </mxCell>
        
        <mxCell id="conversation-msg-container" value="ConversationMessage&#xa;(Game Message Interface)" style="rounded=1;whiteSpace=wrap;html=1;fontSize=12;fillColor=#f8cecc;strokeColor=#b85450;dashed=1;" vertex="1" parent="gamification-ui-group">
          <mxGeometry x="310" y="190" width="180" height="80" as="geometry" />
        </mxCell>
        
        <!-- Connections between components -->
        <mxCell id="connection-launcher-socket" style="edgeStyle=orthogonalEdgeStyle;rounded=0;orthogonalLoop=1;jettySize=auto;html=1;entryX=0.5;entryY=1;entryDx=0;entryDy=0;strokeColor=#01579B;strokeWidth=2;" edge="1" parent="1" source="launcher-server-container" target="socket-io-container">
          <mxGeometry relative="1" as="geometry" />
        </mxCell>
        
        <!-- Footer sections -->
        <mxCell id="footer-section-1" value="" style="rounded=1;whiteSpace=wrap;html=1;fillColor=#f5f5f5;strokeColor=#666666;strokeWidth=2;" vertex="1" parent="1">
          <mxGeometry x="-950" y="1600" width="1350" height="200" as="geometry" />
        </mxCell>
        
        <mxCell id="footer-section-1-title" value="Stack Technologies" style="text;html=1;strokeColor=none;fillColor=none;align=center;verticalAlign=middle;whiteSpace=wrap;rounded=0;fontSize=16;fontStyle=1;" vertex="1" parent="1">
          <mxGeometry x="-600" y="1620" width="650" height="30" as="geometry" />
        </mxCell>
        
        <mxCell id="footer-section-2" value="" style="rounded=1;whiteSpace=wrap;html=1;fillColor=#f5f5f5;strokeColor=#666666;strokeWidth=2;" vertex="1" parent="1">
          <mxGeometry x="500" y="1600" width="1000" height="200" as="geometry" />
        </mxCell>
        
        <mxCell id="footer-section-2-title" value="Architectural Patterns" style="text;html=1;strokeColor=none;fillColor=none;align=center;verticalAlign=middle;whiteSpace=wrap;rounded=0;fontSize=16;fontStyle=1;" vertex="1" parent="1">
          <mxGeometry x="675" y="1620" width="650" height="30" as="geometry" />
        </mxCell>
        
        <mxCell id="footer-section-3" value="" style="rounded=1;whiteSpace=wrap;html=1;fillColor=#f5f5f5;strokeColor=#666666;strokeWidth=2;" vertex="1" parent="1">
          <mxGeometry x="1560" y="1600" width="800" height="200" as="geometry" />
        </mxCell>
        
        <mxCell id="footer-section-3-title" value="Deployment Configuration" style="text;html=1;strokeColor=none;fillColor=none;align=center;verticalAlign=middle;whiteSpace=wrap;rounded=0;fontSize=16;fontStyle=1;" vertex="1" parent="1">
          <mxGeometry x="1735" y="1620" width="450" height="30" as="geometry" />
        </mxCell>
      </root>
    </mxGraphModel>
  </diagram>
</mxfile>
